<svg width="200" height="200" viewBox="0 0 200 200" fill="none" xmlns="http://www.w3.org/2000/svg">
<path d="M81.0772 143.651C81.62 144.102 82.186 144.519 82.7675 144.889C83.0652 145.208 83.3645 145.497 83.6639 145.75L83.7412 145.809L83.6974 145.781C82.7761 145.157 81.9004 144.438 81.0772 143.651ZM103.578 106.696C100.779 105.529 97.7318 105.077 94.6823 105.517C87.7662 106.516 79.6079 112.084 76.7107 119.141C76.5834 119.452 76.481 119.767 76.3752 120.081C74.9103 123.088 74.044 126.506 73.8763 129.821C73.5245 133.183 74.2101 136.739 76.42 140.448C80.7064 147.643 89.2044 151.764 97.1614 151.297C97.6053 151.377 98.0518 151.448 98.5 151.497C106.238 152.306 113.127 146.366 117.509 139.962C126.67 126.59 116.95 110.29 103.578 106.696Z" fill="#4D403D"/>
<path d="M92.5689 116.713C91.9581 116.713 91.3259 116.815 90.7048 116.944C90.544 116.977 90.3771 117.008 90.2067 117.04C89.6648 117.14 89.1049 117.242 88.6386 117.448C88.3892 117.558 88.1345 117.701 87.8876 117.839C87.6528 117.971 87.4937 118.122 87.3259 118.283C87.2193 118.384 87.1117 118.486 86.9913 118.581C85.75 119.568 84.716 120.705 83.8326 122.061C83.387 122.743 83.0455 123.473 82.8158 124.23C82.7272 124.526 82.6799 124.821 82.661 125.112C82.6782 124.926 82.7066 124.754 82.7461 124.589C82.8975 123.954 83.1693 123.29 83.5512 122.616C84.2179 121.442 85.0773 120.339 85.9728 119.508C86.1758 119.319 86.3926 119.147 86.6025 118.981C86.8098 118.817 87.0231 118.648 87.2158 118.468C87.7818 117.939 88.3677 117.582 88.9569 117.405C90.2945 117.004 91.614 116.791 92.7736 116.791C93.0893 116.792 93.4463 116.8 93.7827 116.908C93.9599 116.966 94.107 117.057 94.2507 117.146C94.3599 117.214 94.464 117.277 94.5741 117.323C94.6954 117.373 94.8244 117.404 94.9612 117.437C95.0696 117.464 95.1771 117.491 95.2812 117.526C95.6605 117.653 95.861 117.879 96.0734 118.118L96.193 118.251C96.4029 118.479 96.5689 118.698 96.6962 119.027L96.7255 119.094C96.8235 119.312 96.8674 119.434 96.8485 119.535L96.8855 119.645C96.9148 119.562 96.9052 119.443 96.8596 119.291C96.6962 118.756 96.4364 118.396 96.0132 117.92C95.7543 117.628 95.4171 117.523 95.0601 117.412C94.8218 117.338 94.5749 117.261 94.3358 117.127C93.7964 116.823 93.1943 116.714 92.5689 116.713ZM82.9947 125.714C83.0979 125.778 83.1642 125.888 83.1685 126.021C83.1797 126.385 83.7878 126.522 83.9091 126.545C84.3126 126.624 84.6696 126.532 85.0842 126.427C85.7586 126.258 86.2472 125.986 86.7823 125.628C87.3509 125.249 87.6674 124.753 87.9685 124.124C88.2593 123.516 88.6291 122.993 89.1315 122.48C90.0605 121.528 90.9723 120.859 91.9203 120.432L92.279 120.268C93.2106 119.839 94.1749 119.395 95.2519 119.396H95.27C95.3517 119.396 95.4842 119.412 95.6356 119.429C95.8859 119.459 96.3539 119.513 96.4777 119.446L96.495 119.437L96.4037 119.239L96.3668 119.154C96.2592 118.876 96.1216 118.694 95.9332 118.491L95.8085 118.353C95.6055 118.123 95.4584 117.958 95.1694 117.861C95.0739 117.829 94.9758 117.805 94.8769 117.781C94.7341 117.745 94.5861 117.71 94.4399 117.65C94.3022 117.593 94.1818 117.518 94.0649 117.447C93.9341 117.366 93.8102 117.289 93.6734 117.244C93.3869 117.151 93.0678 117.13 92.7736 117.144C91.6485 117.145 90.3633 117.351 89.0584 117.744C88.5216 117.904 87.9831 118.235 87.4567 118.726C87.2536 118.915 87.0343 119.09 86.8218 119.258C86.6171 119.42 86.4063 119.588 86.2136 119.766C85.344 120.574 84.5078 121.647 83.8584 122.79C83.4928 123.436 83.2339 124.069 83.0894 124.671C83.0171 124.972 82.987 125.299 82.9947 125.714ZM82.8149 126.375L82.9827 126.59C83.4438 127.039 84.4769 127.024 85.0618 126.871C86.4279 126.516 87.4214 125.878 88.0158 124.973C88.1749 124.73 88.3057 124.471 88.4321 124.222C88.6369 123.818 88.8476 123.403 89.1857 123.03C89.7715 122.384 90.4046 121.837 91.1237 121.36C91.5822 121.055 92.0751 120.831 92.5508 120.615L92.9113 120.451C93.6433 120.111 94.4622 119.787 95.4756 119.819C95.5745 119.821 95.6855 119.829 95.8033 119.836C96.1827 119.861 96.7014 119.896 96.8519 119.707L96.8717 119.676L96.7194 119.722L96.6463 119.756C96.4408 119.869 96.064 119.835 95.5934 119.781C95.4592 119.764 95.3423 119.75 95.2692 119.75H95.2682H95.2519C94.2515 119.749 93.3242 120.176 92.427 120.589L92.0657 120.754C91.159 121.163 90.2816 121.808 89.3836 122.727C88.9087 123.211 88.5612 123.705 88.2868 124.276C87.9608 124.957 87.6141 125.498 86.9784 125.922C86.4133 126.3 85.8937 126.588 85.1935 126.764C84.7341 126.881 84.3212 126.985 83.8421 126.891C83.2115 126.77 82.8287 126.448 82.8149 126.031L82.6721 126.009C82.6876 126.226 82.71 126.441 82.7315 126.654L82.8149 126.375ZM84.2566 127.319C83.7672 127.319 83.239 127.225 82.87 126.956L82.6833 126.99C82.519 126.975 82.3978 126.854 82.3806 126.69C82.2954 125.871 82.2076 125.024 82.4777 124.128C82.7169 123.338 83.073 122.578 83.5358 121.867C84.4416 120.481 85.4997 119.315 86.7719 118.305C86.8829 118.217 86.9827 118.121 87.0816 118.027C87.2588 117.859 87.4412 117.685 87.6786 117.551C87.9685 117.388 88.2309 117.242 88.4958 117.125C88.9999 116.902 89.5806 116.796 90.1432 116.692C90.31 116.661 90.4751 116.631 90.6334 116.598C91.9556 116.324 93.3423 116.162 94.5087 116.819C94.7152 116.935 94.9337 117.003 95.1651 117.075C95.553 117.196 95.9538 117.32 96.2781 117.686C96.6489 118.103 96.9982 118.532 97.1978 119.188C97.2932 119.501 97.27 119.75 97.129 119.927C96.8631 120.262 96.2868 120.223 95.7792 120.189C95.6674 120.181 95.5624 120.175 95.4687 120.172C94.5224 120.161 93.7534 120.449 93.0601 120.772L92.6962 120.937C92.2119 121.157 91.7543 121.364 91.3191 121.653C90.6257 122.115 90.0132 122.643 89.4472 123.267C89.1409 123.604 88.95 123.982 88.747 124.381C88.6171 124.64 88.4811 124.907 88.3108 125.166C87.6674 126.147 86.6042 126.835 85.1513 127.214C84.9147 127.275 84.5947 127.319 84.2566 127.319Z" fill="#f7f4f0"/>
<path d="M82.4996 126.711L82.4652 126.777C82.6106 126.708 82.8101 126.714 83.0424 126.764C82.8583 126.705 82.6407 126.643 82.4996 126.711ZM82.6545 127.079C82.6828 127.664 83.2334 128.268 83.7908 128.579C84.4781 128.963 85.2326 129.326 86.0902 129.393C87.4691 129.495 89.2799 129.563 91.0545 129.15C92.2192 128.879 93.4992 128.339 94.9675 127.498C96.2467 126.765 97.0321 125.72 97.6902 124.7C98.0626 124.123 98.4497 123.434 98.4901 122.703C98.5185 122.18 98.3431 121.552 98.0188 121.02C97.6377 120.396 97.0837 120.243 96.3698 120.209C95.8485 120.175 95.4467 120.365 94.9848 120.575C94.8764 120.624 94.7663 120.674 94.651 120.723C94.048 120.979 93.4588 121.303 92.8971 121.688C92.7457 121.792 92.5908 121.892 92.4368 121.992C92.0445 122.247 91.6394 122.509 91.2988 122.832C90.7921 123.311 90.2716 123.839 89.8992 124.452C89.8278 124.571 89.7616 124.69 89.6962 124.808C89.4966 125.166 89.2902 125.538 88.9444 125.837C88.7835 125.975 88.6269 126.119 88.4712 126.261C87.7624 126.912 87.0295 127.584 85.9628 127.726C85.4269 127.794 84.805 127.722 84.1117 127.504C84.0506 127.485 83.956 127.447 83.8407 127.401C83.0502 127.09 82.7568 127.053 82.6545 127.079ZM82.3026 126.94L82.2751 126.941L82.2347 126.974C82.1702 128.121 83.3375 128.84 84.4885 129.39C85.1706 129.716 85.8364 129.805 86.6252 129.837C86.8222 129.844 87.0175 129.856 87.2128 129.867C87.8734 129.905 88.4961 129.941 89.1361 129.858L89.5069 129.81C90.1994 129.724 90.9151 129.634 91.5792 129.446C92.3637 129.225 93.1069 128.886 93.8011 128.558C95.0725 127.956 96.3887 127.265 97.2799 126.027L97.4063 125.855C98.1814 124.784 99.0588 123.572 98.8893 122.235C98.7612 121.221 98.1444 120.046 97.0941 119.86C96.3749 119.732 95.7349 119.787 95.076 120.034C94.9229 120.091 94.7757 120.166 94.62 120.245C94.5082 120.303 94.3955 120.359 94.2811 120.41C93.9697 120.548 93.6592 120.73 93.3581 120.907L93.2144 120.991C91.6833 121.885 90.6226 122.764 89.8768 123.756C89.685 124.01 89.5302 124.276 89.3641 124.558L89.2093 124.822C88.9607 125.237 88.6717 125.517 88.3371 125.839C87.685 126.469 86.9383 127.131 86.0377 127.295C85.2661 127.437 84.4523 127.206 83.7194 126.975C83.802 127.007 83.8863 127.04 83.9706 127.074C84.0755 127.115 84.1624 127.149 84.2192 127.167C84.8609 127.369 85.4329 127.44 85.9164 127.375C86.8729 127.249 87.5336 126.643 88.2321 126.002C88.3912 125.856 88.5503 125.71 88.7129 125.57C89.0123 125.312 89.1947 124.983 89.3874 124.636C89.4554 124.514 89.5233 124.392 89.5972 124.268C89.9912 123.621 90.5314 123.071 91.0562 122.575C91.42 122.231 91.839 121.959 92.2442 121.696C92.3964 121.597 92.5478 121.499 92.6975 121.397C93.2781 120.999 93.8888 120.663 94.5125 120.397C94.6252 120.35 94.7328 120.301 94.8394 120.253C95.3212 120.034 95.7753 119.832 96.3869 119.855C97.0682 119.889 97.8304 120.032 98.3207 120.837C98.6854 121.436 98.8756 122.122 98.8429 122.722C98.7981 123.535 98.3852 124.275 97.9869 124.893C97.3048 125.949 96.4884 127.033 95.143 127.804C93.6437 128.663 92.3328 129.216 91.1336 129.494C89.3134 129.918 87.4673 129.85 86.0635 129.744C85.1379 129.674 84.3413 129.29 83.6188 128.888C82.9598 128.52 82.2673 127.766 82.3009 126.975L82.3026 126.94ZM88.2708 130.261C87.9069 130.261 87.5465 130.24 87.1929 130.219C86.9994 130.208 86.8059 130.197 86.6106 130.189C85.7779 130.156 85.0734 130.061 84.3353 129.709C83.5112 129.314 81.796 128.494 81.882 126.954C81.8915 126.784 82.0015 126.65 82.1564 126.606C82.208 126.516 82.2742 126.427 82.3465 126.392C82.6226 126.261 82.9452 126.362 83.1818 126.437L83.2652 126.464C83.3925 126.502 83.5242 126.544 83.6566 126.586C84.4291 126.83 85.2299 127.086 85.974 126.948C86.7783 126.801 87.4769 126.178 88.0687 125.607C88.4076 125.279 88.6811 125.016 88.9065 124.64L89.0596 124.379C89.2222 124.101 89.3908 123.815 89.5946 123.543C90.3697 122.512 91.4631 121.604 93.0364 120.686L93.1801 120.602C93.4889 120.421 93.808 120.232 94.1383 120.087C94.2476 120.039 94.3543 119.984 94.4601 119.93C94.6175 119.85 94.78 119.768 94.9521 119.702C95.6729 119.432 96.3723 119.373 97.156 119.512C98.3887 119.732 99.0906 121.015 99.2403 122.191C99.427 123.665 98.5057 124.938 97.6919 126.061L97.5672 126.235C96.6261 127.541 95.2652 128.256 93.9517 128.877C93.2446 129.212 92.4859 129.557 91.6755 129.786C90.9848 129.981 90.2561 130.072 89.5516 130.161L89.1818 130.208C88.8764 130.248 88.5727 130.261 88.2708 130.261Z" fill="#f7f4f0"/>
<path d="M86.6953 118.702C85.589 119.494 84.5903 120.582 83.7155 121.95C83.2011 122.754 82.8261 123.681 82.5276 124.482C82.2351 125.265 82.106 126.356 82.5112 126.898L82.5921 126.89C82.3237 126.54 82.2687 125.964 82.4166 125.128C82.4828 124.747 82.6334 124.407 82.7788 124.079L82.8476 123.923C83.2192 123.07 83.5383 122.36 83.9805 121.638C84.6101 120.609 85.5039 119.64 86.6953 118.702ZM82.5404 127.269C82.4269 127.269 82.3125 127.221 82.229 127.111C81.6716 126.366 81.946 125.031 82.1963 124.358C82.5017 123.541 82.8854 122.591 83.4179 121.759C84.6385 119.853 86.0966 118.472 87.7534 117.654C87.8953 117.585 88.0639 117.634 88.143 117.772C88.2204 117.905 88.1817 118.066 88.0501 118.155C86.3064 119.327 85.0738 120.527 84.2824 121.822C83.8514 122.526 83.5374 123.225 83.171 124.064L83.1022 124.222C82.9585 124.545 82.8234 124.85 82.7632 125.189C82.6368 125.914 82.6712 126.414 82.8682 126.676C82.9938 126.844 82.962 127.058 82.7934 127.184C82.722 127.238 82.6316 127.269 82.5404 127.269Z" fill="#f7f4f0"/>
<path d="M92.6935 116.977C93.4574 116.977 94.1189 117.11 94.7211 117.378C95.7679 117.843 96.4466 118.821 96.9206 119.623L96.9731 119.613V119.582C96.7056 119.13 96.4596 118.727 96.1473 118.347C95.8729 118.012 95.4023 117.712 95.0238 117.471C93.9236 116.766 92.4199 116.879 91.8238 116.96C90.9799 117.074 89.9477 117.245 89.0195 117.566C89.7206 117.351 90.4604 117.234 91.1434 117.126L91.3516 117.092C91.8342 117.016 92.2789 116.976 92.6935 116.977ZM85.3937 120.153C85.2965 120.153 85.2079 120.095 85.1727 119.997C85.1271 119.874 85.1855 119.736 85.3068 119.683C85.4625 119.616 85.6148 119.454 85.7627 119.296C85.8505 119.202 85.9365 119.11 86.0226 119.037C86.1903 118.893 86.3761 118.748 86.6264 118.568C86.7391 118.486 86.8492 118.403 86.9593 118.32C87.3524 118.026 87.7584 117.721 88.2212 117.506C89.3318 116.99 90.7038 116.755 91.7757 116.609C92.4114 116.524 94.0157 116.406 95.2131 117.172C95.6131 117.428 96.1103 117.744 96.42 118.121C96.7486 118.522 97.0023 118.938 97.2768 119.401C97.349 119.523 97.3516 119.661 97.2845 119.781C97.2139 119.906 97.0772 119.988 96.9361 119.989C96.8062 119.997 96.6867 119.923 96.6161 119.803C96.1688 119.048 95.5331 118.125 94.5783 117.701C93.712 117.316 92.7064 117.234 91.4075 117.442L91.1985 117.474C90.0819 117.652 88.9275 117.835 87.9899 118.385C87.5391 118.649 87.0909 118.971 86.6582 119.283L86.5963 119.328C86.4871 119.407 86.3796 119.504 86.2694 119.603C86.0269 119.822 85.7765 120.048 85.4677 120.142L85.3937 120.153Z" fill="#f7f4f0"/>
<path d="M82.4688 127.875C82.523 128.123 82.6409 128.342 82.8216 128.532C83.3308 129.069 84.0585 129.502 84.8706 129.751C85.7402 130.019 86.6401 130.087 87.6422 130.142C88.4878 130.195 89.2637 129.985 90.087 129.769L90.4904 129.664C90.8929 129.561 91.2732 129.464 91.6611 129.313C91.9751 129.191 92.2848 129.059 92.5954 128.927L93.0229 128.746C93.8719 128.393 94.5695 128.061 95.2215 127.59L95.5003 127.39C96.1394 126.931 96.8 126.456 97.3858 125.922C98.0689 125.298 98.5282 124.582 98.831 123.67C98.985 123.2 99.0968 122.805 98.9988 122.352C98.917 121.977 98.7114 121.452 98.4362 121.122C98.3252 120.99 98.2073 120.868 98.0886 120.746C97.9372 120.588 97.7798 120.427 97.6396 120.245C97.5794 120.167 97.5149 120.09 97.4504 120.013C97.3454 119.889 97.2397 119.763 97.1511 119.633L97.0211 119.407C96.9695 119.309 96.9248 119.226 96.8551 119.146L96.8207 119.177C96.9523 119.352 97.0409 119.51 97.1278 119.662C97.2018 119.793 97.2723 119.917 97.3601 120.023L97.5321 120.235C97.6723 120.409 97.8117 120.581 97.9657 120.746L98.0886 120.877C98.3157 121.116 98.5308 121.342 98.6779 121.683C98.8715 122.131 99.0495 122.617 98.9101 123.201C98.4559 125.11 96.9996 126.204 95.7145 127.169C94.4414 128.124 92.9566 128.74 91.6654 129.243C89.9037 129.928 88.2073 130.181 86.6228 129.997L86.4301 129.975C85.606 129.881 84.7527 129.784 84.0061 129.349C83.576 129.097 83.0435 128.761 82.7484 128.39C82.6228 128.232 82.5291 128.06 82.4688 127.875ZM87.8857 130.502C87.7979 130.502 87.711 130.5 87.6224 130.495C86.597 130.438 85.6749 130.368 84.7674 130.089C83.8977 129.823 83.1157 129.356 82.5652 128.775C82.019 128.199 81.9356 127.408 82.3166 126.423C82.3725 126.281 82.5265 126.215 82.6788 126.268C82.8336 126.323 82.9128 126.476 82.8646 126.623C82.6556 127.255 82.7097 127.775 83.0245 128.17C83.286 128.499 83.8117 128.826 84.1842 129.043C84.8672 129.442 85.6818 129.534 86.4706 129.624L86.6642 129.646C88.1893 129.823 89.8297 129.577 91.5372 128.913C92.8645 128.396 94.265 127.815 95.5029 126.885C96.8001 125.912 98.142 124.905 98.567 123.119C98.6693 122.685 98.5669 122.316 98.3536 121.823C98.2306 121.54 98.0465 121.345 97.8332 121.121L97.7067 120.987C97.5476 120.816 97.4031 120.637 97.2568 120.457L97.0874 120.248C96.9807 120.118 96.8989 119.975 96.8207 119.836C96.7398 119.694 96.6633 119.559 96.567 119.452C96.4009 119.266 96.4559 119.017 96.6056 118.884C96.7622 118.743 96.9781 118.755 97.1174 118.911C97.2172 119.022 97.2766 119.134 97.3333 119.244L97.4426 119.434C97.5252 119.554 97.6232 119.67 97.7204 119.786C97.7884 119.866 97.8564 119.947 97.9192 120.029C98.0482 120.195 98.191 120.343 98.3424 120.5C98.4671 120.629 98.591 120.757 98.7072 120.895C99.0427 121.296 99.2594 121.891 99.3437 122.278C99.4607 122.816 99.3326 123.277 99.1657 123.78C98.8439 124.753 98.3536 125.516 97.6242 126.183C97.0237 126.731 96.3536 127.212 95.7058 127.676L95.4289 127.876C94.7089 128.396 93.9123 128.758 93.1588 129.072L92.733 129.252C92.4198 129.386 92.1067 129.519 91.7893 129.642C91.3816 129.8 90.991 129.901 90.5772 130.007L90.1764 130.111C89.4091 130.312 88.6797 130.503 87.8857 130.502Z" fill="#f7f4f0"/>
<path d="M82.372 127.979C82.391 128.059 82.4099 128.133 82.4271 128.198L82.4392 128.244C82.6232 128.962 82.9794 129.555 83.5282 130.057C84.6344 131.071 86.1932 131.574 88.2947 131.597L88.594 131.602C88.9492 131.608 89.3157 131.615 89.6692 131.592C89.9781 131.572 90.2672 131.499 90.5734 131.422C90.7411 131.38 90.9114 131.337 91.0852 131.303C91.7759 131.167 92.4031 130.886 93.068 130.587L93.4749 130.406C95.3776 129.572 96.6929 128.532 97.3862 127.311C98.2421 125.801 99.0318 124.132 99.0129 122.161L98.963 122.148L98.7729 122.175L98.9492 122.174C98.9587 123.098 98.8065 124.03 98.4985 124.944C98.3506 125.384 98.1278 125.807 97.9118 126.216L97.739 126.548C97.5403 126.932 97.3338 127.329 97.0731 127.671C96.5243 128.39 95.7234 129.116 94.8778 129.661C94.243 130.07 93.5162 130.36 92.8142 130.642C92.5914 130.73 92.3712 130.818 92.1553 130.91C90.4323 131.636 88.2189 131.762 85.9204 131.261C84.9122 131.041 83.8963 130.445 83.203 129.667C82.8495 129.27 82.6077 128.814 82.4434 128.228L82.4176 128.139L82.372 127.979ZM89.0843 131.961C88.9174 131.96 88.7514 131.958 88.588 131.955L88.2912 131.951C86.0985 131.927 84.4632 131.393 83.2899 130.318C82.6894 129.768 82.299 129.118 82.0968 128.332L82.0847 128.286C81.9583 127.799 81.7475 126.984 82.1699 126.557C82.2989 126.427 82.4985 126.425 82.6327 126.552C82.766 126.679 82.7738 126.877 82.6508 127.012C82.5028 127.175 82.6938 127.825 82.7566 128.039L82.7832 128.133C82.9329 128.664 83.1497 129.077 83.4671 129.432C84.1123 130.156 85.0576 130.711 85.9961 130.916C88.2241 131.401 90.3618 131.284 92.0185 130.584C92.2362 130.493 92.4581 130.403 92.6826 130.313C93.3699 130.039 94.0805 129.754 94.686 129.364C95.4998 128.839 96.2671 128.145 96.7927 127.457C97.0344 127.139 97.2331 126.756 97.425 126.385L97.5996 126.052C97.8086 125.654 98.0245 125.244 98.1639 124.832C98.4598 123.954 98.6052 123.062 98.5966 122.177C98.594 121.958 98.7617 121.792 98.9854 121.789C99.0791 121.786 99.1704 121.82 99.2401 121.878C99.3201 121.946 99.3648 122.045 99.3656 122.156C99.3863 124.212 98.5742 125.933 97.6933 127.485C96.9622 128.773 95.5902 129.865 93.6168 130.728L93.2125 130.909C92.5596 131.202 91.8834 131.506 91.1531 131.65C90.9854 131.682 90.822 131.724 90.6594 131.765C90.3515 131.842 90.0332 131.922 89.6925 131.944C89.4904 131.957 89.2865 131.961 89.0843 131.961Z" fill="#f7f4f0"/>
<path d="M86.212 121.285C85.9574 121.418 85.7354 121.697 85.5479 121.99C85.7105 121.753 85.8937 121.535 86.0976 121.381L86.138 121.35L86.1879 121.345L86.39 121.274L86.218 121.311L86.212 121.285ZM84.2679 125.227L84.1457 125.201C84.0004 125.139 83.8946 124.965 83.9686 124.78C84.0804 124.504 84.1724 124.218 84.261 123.941C84.4158 123.459 84.575 122.962 84.8451 122.493L84.9492 122.309C85.2167 121.834 85.5479 121.243 85.9927 120.966C86.0968 120.903 86.2335 120.895 86.3488 120.945C86.4563 120.991 86.5311 121.081 86.5535 121.19L86.563 121.239C86.5854 121.348 86.5621 121.455 86.4985 121.542C86.4443 121.615 86.3659 121.666 86.2791 121.688C85.892 122 85.5702 122.613 85.3328 123.065L85.2985 123.13C85.1187 123.471 84.987 123.842 84.8597 124.201C84.7608 124.481 84.6584 124.769 84.5328 125.049C84.4812 125.163 84.3797 125.227 84.2679 125.227Z" fill="#f7f4f0"/>
<path d="M87.3805 119.56L87.4535 119.695L87.463 119.692L87.3805 119.56ZM85.9482 120.98L85.8329 120.957C85.691 120.899 85.6221 120.753 85.6729 120.614C85.8776 120.07 86.4453 119.806 86.946 119.574C87.0707 119.517 87.1903 119.461 87.297 119.403C87.4174 119.338 87.5516 119.345 87.6557 119.418C87.7632 119.495 87.8226 119.633 87.8037 119.763C87.7847 119.887 87.6987 119.985 87.5731 120.027C87.2858 120.121 87.0277 120.209 86.7791 120.348C86.5796 120.459 86.2794 120.626 86.1942 120.821C86.1495 120.921 86.054 120.98 85.9482 120.98Z" fill="#f7f4f0"/>
<path d="M96.9294 123.919C96.7419 124.332 96.4933 124.708 96.1836 125.045C95.8 125.463 95.3414 125.81 94.9414 126.102L94.8365 126.176C95.0163 126.061 95.1866 125.953 95.3389 125.832C95.8473 125.427 96.2034 125.074 96.4924 124.687C96.6679 124.454 96.8133 124.197 96.9294 123.919ZM94.6748 126.275L94.5432 126.354C94.3298 126.48 94.1285 126.598 93.9806 126.753C94.2017 126.578 94.44 126.424 94.6748 126.275ZM93.9987 127.127C93.9032 127.127 93.8068 127.088 93.7311 127.013C93.5866 126.867 93.584 126.655 93.726 126.508C93.9083 126.318 94.1406 126.182 94.3642 126.05C94.4924 125.975 94.6189 125.9 94.7333 125.817C95.1195 125.535 95.5617 125.2 95.9238 124.806C96.6369 124.028 97.0008 123.023 97.0051 121.819C97.0051 121.646 97.1384 121.511 97.3148 121.509H97.32C97.4886 121.509 97.6193 121.635 97.6245 121.804C97.6641 123.052 97.3785 124.094 96.7754 124.899C96.4675 125.311 96.0915 125.684 95.5582 126.108C95.3767 126.253 95.1702 126.382 94.9707 126.507C94.7169 126.668 94.4537 126.832 94.2559 127.022C94.1819 127.093 94.0898 127.128 93.9987 127.127Z" fill="#f7f4f0"/>
<path d="M92.3609 126.968C92.2818 126.968 92.2044 126.935 92.1442 126.868C92.0281 126.742 92.0263 126.561 92.1381 126.444C92.3283 126.246 92.5768 126.129 92.816 126.015C92.9665 125.943 93.1085 125.876 93.2306 125.792C93.6358 125.514 93.9687 125.203 94.2509 124.842C94.3438 124.723 94.5098 124.706 94.6354 124.799C94.7618 124.894 94.7919 125.056 94.7059 125.178C94.4366 125.56 94.1425 125.87 93.8078 126.128C93.6117 126.28 93.3777 126.453 93.1231 126.592L92.8977 126.702C92.767 126.763 92.6431 126.819 92.5407 126.902L92.3609 126.968Z" fill="#f7f4f0"/>
<path d="M105.76 125.018C105.199 125.018 104.655 125.156 104.13 125.377L104.749 125.188C105.123 125.073 105.465 125.018 105.795 125.018H105.76ZM108.428 132.687C108.959 133.707 109.913 134.319 110.787 134.681L110.782 134.675C110.648 134.511 110.502 134.364 110.346 134.209C110.244 134.107 110.141 134.004 110.043 133.898C109.659 133.48 109.321 133.093 109.103 132.592C108.874 132.065 108.675 131.471 108.477 130.718C108.211 129.711 107.751 128.803 107.276 128.01C107.493 128.606 107.568 129.229 107.641 129.833L107.684 130.183C107.803 131.107 108.067 131.997 108.428 132.687ZM110.241 134.821L110.43 134.917L110.706 135.059C111.131 135.281 111.571 135.369 112.037 135.461L112.103 135.475L111.337 135.253C110.996 135.149 110.62 135.009 110.241 134.821ZM112.139 135.483C112.27 135.509 112.403 135.536 112.536 135.567L112.674 135.603C112.508 135.524 112.355 135.445 112.225 135.378C111.941 135.233 111.419 134.964 111.221 134.581C111.151 134.507 111.082 134.431 111.012 134.347C110.85 134.153 110.665 133.968 110.487 133.789C110.208 133.511 109.92 133.223 109.695 132.879C109.259 132.214 109.049 131.438 108.844 130.688C108.692 130.127 108.533 129.547 108.285 129.034C108.048 128.547 107.755 128.065 107.472 127.6L107.331 127.367C107.069 126.933 106.761 126.492 106.291 126.195C105.838 125.91 105.303 125.607 104.775 125.533L104.018 125.424C103.537 125.639 103.074 125.918 102.633 126.218C102.881 126.059 103.122 125.922 103.333 125.808C103.439 125.751 103.549 125.695 103.659 125.639L103.809 125.563L103.893 125.709C104.1 125.83 104.346 125.863 104.607 125.898C104.881 125.936 105.164 125.974 105.426 126.112C105.857 126.338 106.284 126.846 106.694 127.619C107.081 128.345 107.183 129.155 107.282 129.939C107.341 130.406 107.403 130.889 107.524 131.341C107.888 132.691 108.429 133.602 109.227 134.207C109.464 134.389 109.707 134.536 109.958 134.672C109.243 134.27 108.552 133.689 108.115 132.851C107.629 131.919 107.422 130.911 107.333 130.229L107.29 129.875C107.209 129.203 107.132 128.569 106.878 127.96C106.62 127.348 106.245 126.776 105.846 126.39L106.067 126.117C106.527 126.426 106.872 126.711 107.174 127.18C107.789 128.134 108.466 129.29 108.819 130.629C109.012 131.363 109.205 131.941 109.427 132.451C109.623 132.901 109.94 133.264 110.303 133.658C110.398 133.762 110.497 133.861 110.595 133.96C110.75 134.114 110.91 134.273 111.056 134.451L111.154 134.574C111.257 134.704 111.353 134.827 111.472 134.926L112.139 135.483ZM108.999 138.474C109.177 138.475 109.341 138.48 109.507 138.486C110.024 138.504 110.559 138.523 111.019 138.372L110.829 138.386C110.755 138.409 110.651 138.427 110.546 138.435C109.909 138.488 109.245 138.463 108.603 138.441L108.503 138.438C107.681 138.41 106.992 138.212 106.269 137.795L105.881 137.573C104.854 136.987 103.792 136.38 102.903 135.526C102.277 134.926 101.795 134.366 101.469 133.861C101.08 133.257 100.877 132.483 100.698 131.8C100.462 130.901 100.298 130.169 100.432 129.327C100.558 128.525 100.916 127.753 101.414 127.209C101.586 127.019 101.783 126.841 101.992 126.675L101.896 126.746C100.902 127.484 100.307 128.768 100.343 130.096C100.362 130.863 100.583 131.641 100.794 132.3L100.817 132.37C101.012 132.975 101.213 133.599 101.586 134.075C102.626 135.399 103.691 136.35 104.94 137.07L105.338 137.3C105.865 137.606 106.411 137.923 106.96 138.19C107.553 138.477 108.312 138.478 108.976 138.474H108.999ZM110.023 138.852C109.847 138.852 109.67 138.846 109.495 138.839C109.325 138.833 109.162 138.829 108.997 138.827C108.274 138.825 107.472 138.831 106.806 138.507C106.245 138.235 105.694 137.915 105.16 137.605L104.764 137.376C103.475 136.633 102.376 135.654 101.308 134.292C100.896 133.768 100.675 133.083 100.481 132.478L100.459 132.409C100.238 131.726 100.01 130.917 99.9889 130.107C99.9502 128.664 100.601 127.268 101.685 126.463C102.844 125.602 104.2 124.688 105.683 124.689L105.787 124.691C105.978 124.697 106.126 124.853 106.122 125.047C106.12 125.234 105.983 125.37 105.795 125.371C105.709 125.371 105.621 125.376 105.53 125.385C105.869 125.525 106.19 125.713 106.479 125.896C107.011 126.232 107.348 126.713 107.633 127.184L107.774 127.416C108.061 127.889 108.359 128.378 108.602 128.879C108.866 129.424 109.028 130.019 109.186 130.595C109.391 131.352 109.586 132.067 109.991 132.686C110.195 133 110.459 133.262 110.737 133.54C110.921 133.725 111.112 133.915 111.283 134.12C111.354 134.206 111.425 134.283 111.495 134.356L111.527 134.403C111.663 134.693 112.133 134.934 112.386 135.064C112.656 135.203 113.026 135.394 113.398 135.529L113.443 135.546L113.473 135.581C113.557 135.682 113.612 135.798 113.637 135.926L113.651 136.032L113.681 136.385L113.383 136.225C113.319 136.184 113.246 136.149 113.167 136.12C113.065 136.058 112.98 136.019 112.877 135.987L112.802 136.024L112.718 135.996C112.647 135.963 112.562 135.936 112.456 135.911C112.291 135.873 112.128 135.841 111.968 135.808C111.498 135.714 111.013 135.617 110.542 135.372L110.269 135.232C109.833 135.009 109.421 134.799 109.013 134.489C108.15 133.832 107.568 132.862 107.183 131.433C107.055 130.958 106.992 130.462 106.932 129.983C106.831 129.196 106.738 128.453 106.382 127.784C106.011 127.084 105.624 126.614 105.262 126.425C105.055 126.316 104.814 126.283 104.559 126.249C104.276 126.21 103.985 126.17 103.723 126.022L103.706 126.011L103.5 126.12C102.725 126.535 102.077 127.006 101.673 127.447C101.222 127.941 100.897 128.647 100.78 129.383C100.658 130.157 100.814 130.852 101.032 131.682C101.211 132.367 101.407 133.113 101.766 133.67C102.077 134.15 102.541 134.69 103.147 135.271C104.004 136.095 105.001 136.664 106.057 137.266L106.445 137.489C107.116 137.876 107.753 138.059 108.515 138.084L108.615 138.088C109.247 138.11 109.901 138.132 110.519 138.083C110.607 138.077 110.693 138.061 110.775 138.039C111.263 138.012 111.579 137.901 111.868 137.662L112.028 137.565C112.108 137.537 112.186 137.504 112.262 137.463C112.374 137.427 112.452 137.404 112.53 137.38L113.371 137.107L112.7 137.681C112.273 138.046 111.813 138.422 111.306 138.64C110.903 138.814 110.465 138.852 110.023 138.852Z" fill="#f7f4f0"/>
<path d="M113.117 136.005L113.048 135.999C112.847 135.964 112.695 135.869 112.547 135.778L112.419 135.701C112.296 135.626 112.156 135.541 112.044 135.53C111.877 135.514 111.736 135.367 111.724 135.196C111.714 135.044 111.808 134.92 111.958 134.884L112.026 134.868L112.087 134.903C112.195 134.966 112.3 135.02 112.385 135.064C112.664 135.208 113.01 135.386 113.361 135.517L113.516 135.574L113.47 135.732C113.42 135.9 113.28 136.005 113.117 136.005Z" fill="#f7f4f0"/>
<path d="M105.579 124.936C105.751 124.936 105.922 124.961 106.077 124.984C106.164 124.998 106.249 125.01 106.327 125.017C106.756 125.053 107.179 125.136 107.589 125.216L107.721 125.241C108.354 125.364 109.278 125.619 110.075 126.135L110.227 126.233C110.485 126.397 110.751 126.568 110.997 126.784C111.301 127.049 111.543 127.205 111.86 127.384C112.733 127.878 113.366 128.702 113.743 129.306C114.213 130.058 114.722 130.956 114.954 131.912C115.152 132.754 115.229 133.489 115.178 134.108C115.238 133.443 115.178 132.704 114.98 131.88C114.799 131.106 114.395 130.397 114.009 129.712L113.983 129.666C113.686 129.139 113.224 128.383 112.644 127.907C112.398 127.704 112.105 127.475 111.807 127.32C111.49 127.154 111.247 126.953 110.988 126.741L110.776 126.566C110.19 126.1 109.671 125.798 109.143 125.616C108.236 125.307 107.457 125.114 106.765 125.028C106.651 125.014 106.531 124.994 106.409 124.974C105.844 124.882 105.258 124.786 104.9 125.165C105.098 124.986 105.339 124.935 105.579 124.936ZM114.687 135.683L114.679 135.745L114.67 135.772C114.859 135.434 115.006 135.071 115.092 134.679L115.083 134.689C115.006 135.012 114.868 135.346 114.687 135.683ZM113.936 136.705L113.928 136.739C114.169 136.507 114.378 136.242 114.576 135.936L114.498 135.99C114.326 136.254 114.139 136.493 113.936 136.705ZM111.394 138.529H111.371C111.27 138.526 111.178 138.475 111.118 138.389C111.059 138.301 111.043 138.192 111.076 138.097L111.11 138.004L111.205 137.984C111.458 137.928 111.669 137.826 111.868 137.662L112.028 137.565C112.108 137.536 112.188 137.504 112.263 137.462C113.084 137.233 113.556 136.924 113.596 136.6L113.604 136.541L113.645 136.498C113.856 136.283 114.053 136.034 114.229 135.757L114.257 135.709L114.318 135.689L114.361 135.54C114.541 135.221 114.67 134.906 114.748 134.605C114.911 133.94 114.859 133.062 114.61 131.995C114.395 131.087 113.899 130.22 113.444 129.493C113.087 128.924 112.494 128.149 111.686 127.691C111.358 127.507 111.089 127.334 110.764 127.049C110.539 126.851 110.295 126.695 110.037 126.531L109.883 126.431C109.298 126.052 108.507 125.754 107.653 125.588L107.521 125.562C107.121 125.484 106.707 125.404 106.297 125.369C106.211 125.362 106.119 125.348 106.024 125.333C105.702 125.286 105.367 125.234 105.182 125.431C105.107 125.51 105.008 125.56 104.904 125.546C104.816 125.542 104.73 125.504 104.662 125.44C104.594 125.376 104.553 125.293 104.544 125.204C104.533 125.102 104.569 125.001 104.644 124.922C105.13 124.408 105.871 124.529 106.465 124.625C106.583 124.644 106.699 124.664 106.808 124.677C107.526 124.766 108.327 124.964 109.258 125.283C109.825 125.477 110.378 125.798 110.996 126.291L111.214 126.468C111.456 126.668 111.687 126.858 111.97 127.006C112.297 127.177 112.607 127.419 112.869 127.634C113.494 128.148 113.979 128.941 114.292 129.493L114.318 129.538C114.713 130.245 115.126 130.976 115.324 131.798C115.737 133.552 115.599 134.958 114.894 136.096C114.49 136.743 114.006 137.223 113.373 137.605C113.128 137.754 112.871 137.885 112.624 138.011L112.325 138.165L112.165 138.255C111.94 138.384 111.686 138.529 111.394 138.529Z" fill="#f7f4f0"/>
<path d="M114.997 135.052L115.023 135.073L115.014 134.896L114.997 135.056V135.052ZM114.971 135.189C114.92 135.417 114.885 135.657 114.859 135.889C114.782 136.453 114.705 137.035 114.438 137.59C114.101 138.306 113.515 138.887 112.993 139.375C112.787 139.566 112.526 139.764 112.233 139.944C112.33 139.887 112.426 139.828 112.524 139.768C113.184 139.361 113.873 138.638 114.326 137.884C114.73 137.2 114.971 136.194 114.971 135.189ZM109.789 140.612L110.271 140.613H110.289C110.882 140.613 111.412 140.403 111.953 140.106C111.462 140.367 110.913 140.561 110.404 140.583C109.32 140.631 108.464 140.596 107.71 140.474C106.694 140.308 105.878 139.861 105.063 139.377C104.085 138.799 103.407 138.306 102.796 137.729C102.125 137.096 101.593 136.416 101.169 135.65C100.776 134.939 100.555 134.146 100.34 133.38L100.232 132.994C99.9829 132.127 99.9081 131.296 100.006 130.476C99.9115 131.111 99.9236 131.741 100.042 132.334C100.502 134.625 101.27 136.249 102.456 137.443C103.18 138.173 103.915 138.748 104.7 139.204L104.98 139.368C105.757 139.824 106.491 140.255 107.359 140.441C108.155 140.612 108.988 140.611 109.789 140.612ZM110.288 140.966H110.268L109.789 140.965C108.967 140.965 108.117 140.965 107.285 140.786C106.362 140.589 105.568 140.123 104.801 139.673L104.522 139.51C103.711 139.039 102.952 138.445 102.206 137.693C100.968 136.447 100.17 134.766 99.6956 132.403C99.5106 131.482 99.5692 130.478 99.8643 129.5C100.017 128.992 100.198 128.569 100.415 128.207C100.504 128.059 100.61 127.917 100.716 127.776C100.872 127.566 101.019 127.369 101.112 127.149C101.167 127.015 101.316 126.955 101.457 127.009C101.598 127.062 101.671 127.206 101.625 127.343C101.533 127.616 101.382 127.851 101.235 128.077C101.169 128.18 101.104 128.281 101.044 128.387C100.817 128.783 100.636 129.242 100.503 129.752C100.235 130.778 100.258 131.806 100.57 132.896L100.681 133.285C100.889 134.032 101.106 134.803 101.479 135.479C101.884 136.213 102.395 136.865 103.038 137.473C103.629 138.03 104.289 138.509 105.242 139.074C106.028 139.539 106.812 139.969 107.767 140.125C108.496 140.243 109.33 140.276 110.387 140.231C111.193 140.195 112.187 139.643 112.752 139.116C113.25 138.651 113.808 138.1 114.12 137.439C114.361 136.933 114.429 136.403 114.507 135.841C114.55 135.563 114.584 135.276 114.644 134.99C114.679 134.844 114.799 134.736 114.954 134.723L114.997 134.72C115.126 134.711 115.238 134.767 115.307 134.876C115.358 134.971 115.367 135.092 115.324 135.193C115.324 136.274 115.075 137.318 114.627 138.065C114.142 138.877 113.425 139.626 112.709 140.069C111.942 140.542 111.18 140.967 110.288 140.966Z" fill="#f7f4f0"/>
<path d="M104.03 125.783C104.277 125.783 104.526 125.802 104.766 125.82C104.946 125.833 105.118 125.846 105.275 125.85L105.256 125.64L105.253 125.817C105.09 125.815 104.918 125.806 104.741 125.794C104.348 125.772 103.948 125.749 103.586 125.808C103.731 125.79 103.88 125.783 104.03 125.783ZM102.802 126.448C102.711 126.448 102.62 126.406 102.555 126.327C102.443 126.192 102.452 126.005 102.575 125.893C103.173 125.35 104.016 125.4 104.762 125.442C104.932 125.452 105.099 125.462 105.258 125.464H105.258C105.395 125.466 105.511 125.535 105.577 125.652C105.644 125.772 105.643 125.924 105.575 126.039C105.511 126.144 105.403 126.203 105.275 126.202H105.269C105.106 126.2 104.926 126.187 104.739 126.172C104.113 126.127 103.406 126.072 102.981 126.389L102.802 126.448Z" fill="#f7f4f0"/>
<path d="M105.578 124.912C105.395 124.912 105.176 124.963 105.072 125.056L105.015 125.134L105.077 125.062C105.155 124.996 105.27 124.978 105.353 124.964C105.432 124.952 105.485 124.949 105.537 124.947L105.663 124.936L105.701 124.921L105.578 124.912ZM105.007 125.449L105.009 125.45L105.006 125.447L105.007 125.449ZM104.456 126.47L104.798 125.735C104.732 125.695 104.684 125.628 104.665 125.544C104.593 125.214 104.65 124.962 104.834 124.795C105.057 124.593 105.475 124.531 105.755 124.572C105.931 124.6 106.06 124.773 106.043 124.959C106.027 125.128 105.905 125.253 105.723 125.283L105.555 125.299L105.435 125.309L105.296 125.339L105.299 125.407L105.295 125.438L105.239 125.622L105.166 125.704L104.456 126.47Z" fill="#f7f4f0"/>
<path d="M105.433 124.879C105.31 124.879 105.188 124.899 105.067 124.938C105.194 124.908 105.324 124.89 105.457 124.883L105.453 124.88L105.433 124.879ZM104.285 125.859C104.199 125.859 104.113 125.823 104.046 125.75C103.91 125.609 103.902 125.396 104.026 125.257C104.484 124.751 104.966 124.526 105.493 124.536L105.598 124.559C105.819 124.546 106.062 124.553 106.343 124.577C106.481 124.59 106.591 124.664 106.645 124.781C106.697 124.895 106.684 125.031 106.61 125.133C106.534 125.236 106.41 125.288 106.275 125.27C105.831 125.219 105.33 125.188 104.966 125.338L104.837 125.429L104.698 125.575C104.634 125.648 104.569 125.72 104.491 125.784L104.285 125.859Z" fill="#f7f4f0"/>
<path d="M113.648 135.978C113.789 136.083 113.869 136.2 113.912 136.315L113.929 136.307L114.041 136.261L114.202 136.193L114.23 136.1L114.226 136.069L114.186 136.075C114.017 136.1 113.871 136.121 113.648 135.978ZM113.814 136.94L113.715 136.933L113.491 136.907L113.571 136.696L113.598 136.587C113.604 136.514 113.624 136.292 113.169 136.12L113.016 136.063L113.032 136.008L113.011 135.995L112.818 135.876C112.61 135.745 112.43 135.633 112.197 135.543C111.985 135.462 111.759 135.372 111.542 135.244C111.435 135.181 111.371 135.073 111.373 134.954C111.375 134.831 111.445 134.714 111.551 134.654L111.658 134.594L111.752 134.673C111.952 134.841 112.214 134.975 112.386 135.064C112.783 135.269 113.278 135.523 113.756 135.638L113.816 135.664C113.943 135.754 113.978 135.748 114.133 135.726L114.178 135.719C114.266 135.701 114.352 135.728 114.429 135.784C114.507 135.848 114.567 135.95 114.584 136.058C114.601 136.254 114.516 136.372 114.438 136.454C114.395 136.5 114.326 136.529 114.175 136.588L114.137 136.73C114.087 136.851 113.948 136.94 113.814 136.94Z" fill="#f7f4f0"/>
<path d="M102.441 133.421C102.321 133.421 102.197 133.359 102.137 133.224C101.611 132.04 101.073 130.26 101.494 128.506C101.514 128.42 101.573 128.349 101.654 128.311C101.737 128.274 101.828 128.279 101.907 128.32C102.025 128.383 102.08 128.466 102.086 128.562L102.029 128.758C101.753 130.276 102.232 131.753 102.738 133C102.804 133.161 102.736 133.327 102.578 133.394L102.441 133.421Z" fill="#f7f4f0"/>
<path d="M103.74 134.317C103.63 134.317 103.529 134.261 103.467 134.164C103.017 133.462 102.643 132.816 102.634 131.998C102.632 131.838 102.75 131.713 102.908 131.705C103.058 131.701 103.2 131.812 103.214 131.971C103.275 132.637 103.569 133.164 104.027 133.799C104.095 133.895 104.107 134.014 104.058 134.117C104.005 134.23 103.889 134.307 103.762 134.316L103.74 134.317Z" fill="#f7f4f0"/>
<path d="M113.601 132.032C113.712 132.684 113.766 133.351 113.808 133.941C113.778 133.349 113.725 132.68 113.601 132.032ZM113.818 134.3C113.623 134.3 113.469 134.16 113.455 133.966C113.406 133.277 113.341 132.481 113.187 131.739C113.026 130.973 112.783 130.397 112.481 130.073L112.35 129.943C112.31 129.866 112.305 129.774 112.337 129.692C112.379 129.584 112.444 129.524 112.526 129.5C112.622 129.473 112.729 129.495 112.809 129.554C113.37 129.98 113.679 130.879 113.813 131.376C114.041 132.219 114.12 133.134 114.177 133.925C114.191 134.124 114.05 134.285 113.849 134.299L113.818 134.3Z" fill="#f7f4f0"/>
<path d="M113.002 134.118C112.918 134.118 112.833 134.088 112.769 134.031C112.683 133.953 112.648 133.838 112.675 133.725C112.759 133.378 112.734 133.069 112.704 132.71C112.698 132.626 112.69 132.54 112.685 132.452C112.675 132.312 112.773 132.197 112.911 132.184C113.05 132.164 113.18 132.27 113.198 132.411C113.213 132.525 113.231 132.633 113.248 132.741C113.307 133.106 113.363 133.452 113.307 133.855C113.29 133.97 113.219 134.06 113.114 134.099L113.002 134.118Z" fill="#f7f4f0"/>
<path d="M177.896 124.03C177.474 122.457 177.165 120.876 176.958 119.282C177.328 119.17 177.629 118.87 177.586 118.44C177.448 117.292 177.173 116.288 176.691 115.27C176.666 114.949 176.648 114.623 176.648 114.286C176.666 113.114 174.842 113.112 174.833 114.284C174.833 114.531 174.851 114.767 174.868 115.007C174.825 115.104 174.808 115.21 174.808 115.326C174.894 118.445 175.332 121.498 176.141 124.513C176.442 125.642 178.197 125.164 177.896 124.03Z" fill="#4D403D"/>
<path d="M72.103 172.745C71.3589 172.211 70.8084 171.515 70.4523 170.663C70.0962 169.82 69.9181 168.9 69.9189 167.91C69.9207 165.949 70.405 163.979 71.371 162.001C72.337 160.014 73.5723 158.379 75.0776 157.098C76.583 155.816 78.0953 155.179 79.6144 155.179C80.3284 155.179 80.9013 155.343 81.334 155.678C81.7667 156.014 81.9826 156.538 81.9826 157.252C81.9818 157.863 81.8407 158.56 81.5594 159.351C81.2773 160.143 80.9202 160.814 80.4867 161.364C80.0531 161.923 79.6162 162.199 79.1758 162.199C78.7955 162.199 78.4841 161.958 78.2424 161.493C78.8196 160.848 79.3787 160.091 79.9189 159.214C80.4583 158.328 80.7293 157.614 80.7293 157.072C80.7301 156.478 80.3877 156.186 79.7047 156.186C78.6406 156.177 77.512 156.822 76.3189 158.113C75.1258 159.403 74.1289 160.994 73.3306 162.878C72.5306 164.762 72.1306 166.508 72.1297 168.117C72.1289 169.33 72.4015 170.353 72.9469 171.196C73.494 172.031 74.3207 172.444 75.4304 172.452C76.2201 172.452 77.0261 172.229 77.8467 171.781C78.6673 171.334 79.42 170.732 80.1038 169.992C80.7877 169.244 81.3357 168.444 81.7461 167.575L82.3387 167.962C81.4716 169.605 80.3955 170.947 79.1112 171.988C77.8261 173.02 76.417 173.545 74.8824 173.545C73.7736 173.545 72.8471 173.278 72.103 172.745Z" fill="#4D403D"/>
<path d="M87.2499 167.033C87.501 166.431 87.6275 165.88 87.6275 165.39C87.6284 164.728 87.4159 164.392 86.9909 164.392C86.7931 164.392 86.5875 164.487 86.375 164.685C86.1617 164.882 85.9871 165.149 85.8503 165.476C85.7135 165.803 85.6447 166.156 85.6447 166.551C85.6438 166.904 85.7041 167.3 85.8254 167.747C85.9467 168.203 86.1058 168.547 86.3036 168.788C86.683 168.229 86.9987 167.644 87.2499 167.033ZM84.5239 170.68C84.9196 170.379 85.3144 169.984 85.7101 169.519C84.8447 168.753 84.3897 167.644 84.3458 166.164C84.1634 166.259 83.9423 166.534 83.6842 167.007C83.4253 167.48 83.2052 168.005 83.0219 168.581C82.8387 169.158 82.7475 169.657 82.7467 170.087C82.7467 170.784 83.0047 171.136 83.5209 171.136C83.7953 171.136 84.129 170.981 84.5239 170.68ZM81.3445 171.678C81.0641 171.265 80.9238 170.758 80.9238 170.147C80.9247 169.51 81.058 168.857 81.3247 168.169C81.5905 167.489 81.9372 166.913 82.363 166.457C82.788 166.009 83.2215 165.777 83.6619 165.777C83.8443 165.777 84.0799 165.837 84.369 165.958C84.4602 165.261 84.707 164.685 85.1105 164.229C85.5131 163.773 86.0791 163.549 86.8086 163.549C87.4159 163.549 87.864 163.721 88.1531 164.065C88.4413 164.401 88.585 164.848 88.585 165.399C88.5841 165.923 88.443 166.534 88.1617 167.214C87.8796 167.902 87.5182 168.581 87.0778 169.27C87.2602 169.356 87.4727 169.407 87.7152 169.407C88.1402 169.407 88.597 169.261 89.083 168.986C89.5699 168.702 89.9414 168.272 90.2004 167.695L90.6107 167.996C90.2907 168.719 89.8615 169.278 89.3221 169.657C88.7827 170.035 88.2236 170.224 87.6464 170.224C87.2972 170.224 86.9178 170.156 86.5075 170.018C85.9449 170.689 85.329 171.231 84.6606 171.661C83.9914 172.082 83.3376 172.297 82.7002 172.297C82.0765 172.297 81.625 172.091 81.3445 171.678Z" fill="#4D403D"/>
<path d="M95.8124 160.771C96.4808 159.953 96.9944 159.222 97.3523 158.577C97.7092 157.932 97.8881 157.476 97.8881 157.201C97.8881 157.08 97.828 157.02 97.7067 157.02C97.1742 157.012 96.5359 157.588 95.7909 158.732C95.0451 159.885 94.2847 161.381 93.5088 163.231C94.375 162.414 95.1423 161.596 95.8124 160.771ZM91.1862 175.446C91.5131 174.715 91.7944 173.846 92.0309 172.822C92.2675 171.807 92.3853 170.938 92.3862 170.207C92.3862 169.777 92.3372 169.399 92.2391 169.055C92.1402 168.71 91.9698 168.323 91.7273 167.885C91.1793 169.519 90.7415 171.016 90.4137 172.366C90.086 173.717 89.9217 174.784 89.9208 175.558C89.9208 176.211 90.0413 176.538 90.2847 176.538C90.5583 176.538 90.8584 176.177 91.1862 175.446ZM88.6322 177.476C88.3208 177.149 88.166 176.581 88.166 175.764C88.1677 174.181 88.7354 171.695 89.8701 168.289C91.0047 164.891 92.3432 161.855 93.8881 159.179C95.4314 156.504 96.8422 155.171 98.1187 155.171C98.7561 155.171 99.0744 155.558 99.0744 156.332C99.0735 157.166 98.7724 158.121 98.172 159.179C97.5707 160.246 96.7914 161.278 95.8339 162.293C94.8757 163.3 93.8796 164.143 92.8465 164.831L92.4809 165.743C92.6331 165.803 92.7578 165.906 92.8567 166.061C92.9556 166.207 93.0193 166.371 93.0503 166.534C93.2017 167.36 93.3367 167.988 93.4589 168.427C93.5801 168.874 93.766 169.227 94.0163 169.502C94.2675 169.777 94.6116 169.915 95.0529 169.915C95.5544 169.915 96.006 169.734 96.4095 169.364C96.812 169.003 97.249 168.435 97.7213 167.661L98.2219 168.022C97.7651 168.951 97.237 169.648 96.6365 170.121C96.0361 170.586 95.4692 170.827 94.9384 170.827C94.4215 170.827 93.8821 170.62 93.3204 170.207C93.3041 171.437 93.1174 172.659 92.7595 173.863C92.4017 175.068 91.9406 176.057 91.3789 176.813C90.8154 177.571 90.2383 177.949 89.6456 177.949C89.2809 177.949 88.9436 177.794 88.6322 177.476Z" fill="#4D403D"/>
<path d="M103.331 160.779C104 159.962 104.514 159.231 104.871 158.586C105.228 157.941 105.408 157.476 105.408 157.201C105.408 157.08 105.347 157.02 105.225 157.02C104.694 157.02 104.055 157.597 103.31 158.741C102.565 159.885 101.804 161.39 101.027 163.24C101.895 162.422 102.662 161.597 103.331 160.779ZM98.7049 175.454C99.0326 174.723 99.3139 173.846 99.5505 172.831C99.7862 171.816 99.9049 170.938 99.9057 170.216C99.9057 169.786 99.8567 169.407 99.7586 169.063C99.6597 168.719 99.4894 168.332 99.2468 167.885C98.698 169.528 98.2602 171.025 97.9324 172.375C97.6047 173.726 97.4403 174.792 97.4403 175.566C97.4395 176.22 97.5608 176.547 97.8043 176.547C98.0778 176.547 98.3771 176.177 98.7049 175.454ZM96.1509 177.476C95.8404 177.158 95.6847 176.59 95.6856 175.773C95.6864 174.19 96.255 171.695 97.3888 168.298C98.5234 164.891 99.8627 161.855 101.407 159.179C102.951 156.513 104.361 155.179 105.637 155.179C106.275 155.179 106.594 155.566 106.593 156.341C106.593 157.175 106.292 158.121 105.691 159.188C105.09 160.255 104.311 161.287 103.353 162.293C102.394 163.308 101.399 164.151 100.365 164.831L100 165.743C100.152 165.803 100.277 165.915 100.376 166.061C100.474 166.216 100.539 166.379 100.569 166.543C100.72 167.369 100.856 167.997 100.978 168.435C101.099 168.874 101.285 169.235 101.536 169.511C101.786 169.777 102.131 169.915 102.572 169.915C103.073 169.915 103.526 169.734 103.928 169.373C104.331 169.012 104.769 168.435 105.24 167.661L105.741 168.031C105.285 168.951 104.756 169.657 104.156 170.121C103.555 170.595 102.989 170.827 102.457 170.827C101.941 170.827 101.401 170.62 100.84 170.216C100.824 171.446 100.636 172.659 100.278 173.872C99.9204 175.076 99.4602 176.057 98.8976 176.822C98.335 177.579 97.7578 177.958 97.1651 177.958C96.8004 177.958 96.4623 177.794 96.1509 177.476Z" fill="#4D403D"/>
<path d="M116.941 167.093C117.724 166.534 118.12 165.906 118.12 165.192C118.12 165.012 118.085 164.883 118.025 164.814C117.965 164.745 117.853 164.711 117.681 164.711C117.277 164.711 116.838 164.891 116.374 165.244C115.909 165.605 115.488 166.07 115.1 166.646C114.713 167.222 114.412 167.833 114.218 168.47C115.255 168.108 116.159 167.644 116.941 167.093ZM109.274 166.878C110.156 166.207 110.597 165.511 110.598 164.797C110.598 164.659 110.571 164.564 110.518 164.504C110.465 164.444 110.356 164.409 110.188 164.409C109.763 164.409 109.299 164.607 108.798 165.003C108.296 165.399 107.825 165.906 107.383 166.534C106.942 167.171 106.615 167.807 106.402 168.461C107.435 168.083 108.393 167.558 109.274 166.878ZM113.053 171.988C112.537 171.506 112.234 170.904 112.143 170.173C111.474 170.938 110.725 171.523 109.897 171.953C109.069 172.375 108.229 172.59 107.378 172.59C106.421 172.59 105.673 172.332 105.135 171.824C104.596 171.317 104.326 170.655 104.327 169.855C104.328 168.969 104.625 168.022 105.218 167.007C105.811 165.984 106.571 165.132 107.499 164.427C108.426 163.73 109.353 163.386 110.28 163.386C111.358 163.386 111.898 163.885 111.897 164.891C111.896 165.614 111.614 166.293 111.052 166.913C110.489 167.541 109.764 168.048 108.874 168.444C107.986 168.84 107.077 169.089 106.151 169.192C106.12 169.373 106.105 169.562 106.104 169.76C106.103 170.99 106.696 171.609 107.881 171.609C108.64 171.609 109.408 171.351 110.183 170.844C110.958 170.336 111.65 169.674 112.258 168.857C112.441 168.031 112.814 167.222 113.377 166.414C113.939 165.614 114.619 164.96 115.41 164.444C116.193 163.936 116.984 163.687 117.776 163.687C118.868 163.687 119.419 164.194 119.419 165.218C119.419 165.932 119.161 166.577 118.653 167.162C118.146 167.747 117.466 168.22 116.632 168.582C115.797 168.951 114.911 169.184 113.967 169.287C113.937 169.502 113.921 169.683 113.921 169.837C113.921 170.354 114.041 170.801 114.283 171.171C114.524 171.54 114.971 171.73 115.625 171.73C116.571 171.73 117.535 171.334 118.515 170.543C119.496 169.76 120.27 168.797 120.847 167.678L121.26 167.997C120.623 169.382 119.746 170.508 118.627 171.386C117.509 172.272 116.348 172.71 115.152 172.71C114.266 172.71 113.569 172.47 113.053 171.988Z" fill="#4D403D"/>
<path d="M50.2858 181.046C49.4196 180.848 48.5938 180.573 47.7938 180.22C47.7688 180.022 47.6303 179.833 47.3654 179.824C47.232 179.824 47.0987 179.824 46.9645 179.824C46.8398 179.756 46.7125 179.695 46.5887 179.627C46.3375 179.489 46.0897 179.609 45.9762 179.807C45.4815 179.807 44.9869 179.799 44.4931 179.79C43.9942 179.79 43.8566 180.59 44.371 180.685C45.6011 180.917 46.8303 181.149 48.0596 181.373L48.0604 181.364L48.1801 181.39L48.2428 181.382C48.8269 181.597 49.4247 181.786 50.0424 181.924C50.6127 182.053 50.857 181.175 50.2858 181.046Z" fill="#4D403D"/>
<path d="M27.6723 60.7174C30.8921 61.274 31.5157 66.0817 33.5897 68.246C35.5097 70.2495 38.0378 71.5295 40.4912 72.751C41.3023 73.1553 42.0198 71.9364 41.2052 71.5312C38.0207 69.9467 34.6366 68.2392 32.9506 64.9282C31.7334 62.5359 31.0555 59.8753 28.049 59.3549C27.1604 59.2009 26.7768 60.5617 27.6723 60.7174Z" fill="#4D403D"/>
<path d="M127.968 81.445C136.588 81.7796 145.508 82.0996 153.749 79.1233C156.674 78.0678 159.469 76.6252 161.93 74.7112C165.199 72.165 167.986 67.0046 172.536 66.9633C173.439 66.9547 173.448 65.5413 172.536 65.5499C169.749 65.5749 167.779 66.9951 165.861 68.9151C162.893 71.8906 160.175 74.6467 156.321 76.5229C147.538 80.7947 137.474 80.4007 127.968 80.0317C127.065 79.9964 127.065 81.4097 127.968 81.445Z" fill="#4D403D"/>
<path d="M166.093 79.4812C170.36 79.1139 174.274 77.6585 177.697 75.0787C178.411 74.5376 177.715 73.3101 176.983 73.858C173.766 76.283 170.119 77.723 166.093 78.0679C165.199 78.1462 165.19 79.5595 166.093 79.4812Z" fill="#4D403D"/>
<path d="M46.28 71.6851C49.5953 73.0976 53.0146 73.9165 56.6129 74.1342C57.5213 74.1892 57.5187 72.7759 56.6138 72.7217C53.2753 72.5196 50.0718 71.7763 46.994 70.4662C46.1664 70.1135 45.4456 71.3299 46.28 71.6851Z" fill="#4D403D"/>
<path d="M165.345 9.38756C165.586 9.00304 166.094 8.82067 166.524 8.75874C166.679 9.11659 166.627 9.53378 166.438 9.86582C166.257 10.166 165.784 10.5867 165.431 10.32C165.156 10.1127 165.191 9.64304 165.345 9.38756ZM164.683 11.52C165.578 12.1213 166.782 11.7084 167.419 10.9187C168.098 10.0749 168.193 8.96346 167.737 7.99658C167.616 7.74625 167.419 7.65165 167.212 7.64562C167.118 7.44347 166.928 7.29722 166.619 7.32991C165.56 7.44174 164.502 7.88046 164.021 8.88863C163.599 9.76605 163.849 10.9669 164.683 11.52Z" fill="#4D403D"/>
<path d="M30.58 104.556C30.1525 116.465 13.2811 125.154 19.6201 137.824C20.0269 138.637 21.2467 137.923 20.8407 137.111C17.4549 130.344 22.0639 123.864 25.9374 118.535C29.0437 114.263 31.799 109.973 31.9934 104.557C32.0261 103.647 30.6127 103.647 30.58 104.556Z" fill="#4D403D"/>
<path d="M27.4023 128.407C26.7537 131.277 26.7493 134.143 27.3859 137.016C27.5829 137.903 28.9454 137.529 28.7485 136.641C28.1661 134.014 28.1713 131.408 28.764 128.783C28.9636 127.898 27.6018 127.518 27.4023 128.407Z" fill="#4D403D"/>
<path d="M170.722 142.13C170.988 147.722 173.337 152.607 175.582 157.639C177.001 160.822 178.24 164.031 178.911 167.463C179.427 170.061 181.113 177.966 177.896 179.644C177.087 180.065 177.801 181.287 178.61 180.865C183.212 178.465 180.821 169.037 179.84 165.184C177.836 157.278 172.528 150.445 172.132 142.131C172.098 141.225 170.679 141.219 170.722 142.13Z" fill="#4D403D"/>
<path d="M172.648 167.515C173.001 169.915 172.906 172.298 172.399 174.672C172.201 175.558 173.56 175.936 173.758 175.042C174.325 172.418 174.403 169.794 174.016 167.136C173.878 166.242 172.519 166.62 172.648 167.515Z" fill="#4D403D"/>
<path d="M178.799 145.437C180.493 155.317 183.547 164.487 186.618 173.975C188.192 178.827 188.966 185.485 183.917 188.641C179.934 191.136 174.67 190.431 170.3 189.631C160.811 187.902 151.487 184.822 141.809 185.037C148.889 182.689 156.175 181.287 163.762 182.457C164.975 182.646 165.5 180.788 164.278 180.598C152.304 178.749 141.027 182.904 130.153 187.472C118.274 192.469 106.293 196.994 93.1857 196.796C70.2248 196.452 53.9496 178.268 32.212 173.837C31.0008 173.596 30.4811 175.454 31.6983 175.704C34.3994 176.254 37.0145 177.02 39.5693 177.932C36.4244 177.76 33.2709 178.087 30.2008 178.973C27.6967 179.704 25.4937 181.02 23.0549 181.889C21.4971 182.44 19.7982 182.87 18.1647 182.319C15.6072 181.467 15.5341 179.179 15.3165 176.925C14.8158 171.73 13.1883 166.861 11.6184 161.915C9.81192 156.229 8.58522 150.496 8.38651 144.513C8.0106 133.161 10.9973 122.274 16.5431 112.417C21.5065 103.597 27.6262 95.372 30.2834 85.4692C33.7948 85.3875 37.313 85.1836 40.8149 85.5397C44.8734 85.9526 48.7797 87.1578 52.6163 88.4937C66.7522 93.4133 80.7332 97.1793 95.7827 97.7556C110.967 98.3371 125.242 95.0434 140.063 92.3913C148.106 90.9539 156.175 90.4481 164.321 90.19C167.659 90.0834 171.134 90.1238 174.592 90.0128C174.412 98.5152 174.506 107.012 174.867 115.509C174.885 115.977 175.194 116.249 175.547 116.342C175.564 116.552 175.581 116.763 175.599 116.971C176.295 126.495 177.181 136.02 178.799 145.437ZM16.6902 83.9707C20.3607 85.2447 24.3908 85.5148 28.2713 85.4993C27.8609 86.9479 27.3698 88.3586 26.8244 89.7444C23.9031 87.027 19.9255 85.901 16.6902 83.9707ZM13.4816 74.6305C14.4674 73.7952 15.3388 72.861 16.1242 71.8348C17.811 69.63 18.9982 67.1044 20.1156 64.578C22.6799 58.7844 25.282 53.4597 30.1311 49.1879C30.7392 48.652 31.369 48.1427 32.0141 47.6567C32.1922 47.6885 32.3831 47.6825 32.5827 47.581C36.5706 45.5698 40.636 43.4778 45.018 42.4722C49.6778 41.4038 54.1354 41.9122 58.8244 42.5728C63.3105 43.206 67.7887 43.5681 72.279 43.6593C71.3912 44.1961 70.4906 44.7139 69.565 45.1836C68.7659 45.5896 67.9642 45.9483 67.159 46.2769C59.5694 45.4666 51.676 44.2391 44.1887 45.7522C43.2984 45.9328 43.6743 47.2954 44.5629 47.1156C50.9087 45.833 57.6356 46.6004 64.1637 47.3522C62.8528 47.7616 61.5315 48.1083 60.1982 48.4223C51.4472 48.7113 42.821 50.0748 34.5595 53.3788C34.3375 53.4675 34.1792 53.6111 34.0743 53.7797C32.8751 53.5148 31.6081 53.4812 30.2446 53.7789C29.0326 54.0438 29.5444 55.9027 30.7556 55.6386C32.8975 55.1715 34.7883 55.7401 36.5741 56.7535C37.0601 57.3591 37.7792 57.8546 38.4958 58.2236C38.7599 58.3586 39.0309 58.4842 39.2976 58.615C41.5831 60.3724 43.8136 62.3716 46.3254 63.2189C47.3336 63.6868 48.4072 64.0386 49.2923 64.3612C54.0493 66.0911 59.1039 67.2335 63.9994 68.4963C72.6394 70.7242 81.3526 72.4128 90.2257 73.0176C94.8425 74.135 99.4773 73.8838 104.098 73.1234C106.916 73.1354 109.732 73.0632 112.545 72.9178C116.485 73.1363 120.502 72.9006 124.605 72.301C126.136 72.0782 127.667 71.8382 129.199 71.5887C131.091 71.3797 132.992 71.1466 134.876 70.8765C137.663 70.4782 140.442 70.0051 143.203 69.4743C147.607 68.9049 152.072 68.2623 156.166 66.7673C156.493 66.646 156.82 66.5126 157.147 66.3707C157.758 66.2554 158.368 66.1376 158.988 66.024C159.28 65.969 159.564 65.8503 159.822 65.6825C163.676 64.6047 166.833 61.3806 170.781 60.0687L170.816 60.0515C171.031 60.0318 171.246 60.006 171.47 60.0008C172.708 59.9647 172.717 58.0361 171.47 58.0722C168.373 58.1617 165.749 59.3565 163.169 60.8464C163.057 60.7475 162.945 60.6571 162.833 60.5608C164.192 56.5548 164.88 51.6877 164.244 47.1862C167.298 48.0275 170.334 48.8834 173.319 49.6903C176.519 50.5574 180.45 51.1457 182.885 53.5887C185.31 56.0352 186.282 60.0223 187.358 63.2146C188.347 66.1591 189.233 69.138 190.007 72.1462C190.73 74.9393 191.796 78.3621 191.143 81.3341C190.79 81.4262 190.506 81.698 190.532 82.1677C190.541 82.4722 190.541 82.7612 190.523 83.0417C190.446 83.1862 190.377 83.3315 190.282 83.4718C187.065 88.6614 177.568 87.7969 172.39 87.9991C165.568 88.2666 158.738 88.3199 151.934 88.8851C138.205 90.0232 124.966 94.1883 111.256 95.433C97.8885 96.6468 84.3255 95.5776 71.2889 92.3999C64.6971 90.7939 58.4175 88.4171 52.0046 86.246C45.9152 84.184 40.0511 83.2971 33.627 83.4468C27.227 83.5974 17.6872 84.6287 12.6326 79.6154C12.3547 79.3401 12.1345 79.0872 11.9504 78.8472C11.7104 78.2709 11.516 77.6386 11.3646 76.9522C11.5882 76.129 12.4898 75.4709 13.4816 74.6305ZM98.3479 41.9965L98.4244 42.1651L98.2739 42.1582L98.3479 41.9965ZM131.788 42.2296C132.794 42.1677 133.801 42.1445 134.799 42.1384C133.052 44.4042 131.616 46.9479 130.532 49.5208C129.663 48.6159 128.751 47.7539 127.796 46.9359C126.738 45.5638 125.689 44.1952 124.45 42.9737C126.885 42.664 129.328 42.3819 131.788 42.2296ZM142.962 56.4739C142.764 56.4782 142.575 56.4782 142.377 56.4817L142.325 56.4593C142.54 56.4644 142.747 56.4687 142.962 56.4739ZM136.519 42.1505C136.622 42.1522 136.725 42.1496 136.829 42.1522C137.147 41.5001 137.655 40.9161 138.265 40.4128L138.274 40.3982L138.11 40.3922C142.136 36.369 147.427 34.061 153.568 35.9466C155.091 36.4146 156.373 37.0537 157.457 37.827C157.5 37.9698 157.586 38.1049 157.732 38.2098C158.618 38.8292 159.366 39.5604 159.986 40.3793C160.743 41.4675 161.285 42.6743 161.629 43.9638C161.732 44.1152 161.809 44.295 161.835 44.5083L161.861 44.7346C161.938 45.3444 161.999 45.9604 162.033 46.578L162.067 46.5875C162.153 47.6722 162.136 48.7896 162.024 49.9173L161.947 49.9492C161.878 50.5161 161.775 51.0752 161.637 51.6257C161.637 51.9122 161.629 52.1969 161.62 52.4834C161.19 54.4885 160.51 56.4756 159.667 58.3346L159.547 58.2649C158.179 56.7216 156.184 56.184 154.145 56.0601C149.052 54.6313 143.478 54.5513 138.171 54.5109C137.827 54.5083 137.491 54.4963 137.156 54.492C135.934 54.0223 134.747 53.501 133.637 52.8343C133.784 52.8094 133.921 52.7862 134.067 52.7604C133.964 52.7173 133.861 52.664 133.758 52.5849L133.173 52.1143C133.027 51.9939 132.932 51.8442 132.88 51.6825L132.794 51.5251C132.657 51.5466 132.528 51.5655 132.39 51.5862C132.123 51.273 131.865 50.9599 131.59 50.6554C132.751 47.6782 134.42 44.6915 136.519 42.1505ZM153.698 34.2503C154.747 28.6184 156.072 23.0485 157.749 17.5707C159.212 12.8283 162.171 -0.291687 169.491 3.85541C170.953 4.09198 171.538 4.8911 171.229 6.25368C171.186 7.44594 171.022 8.62015 170.73 9.77284C170.446 10.9961 170.024 12.1918 169.568 13.3591C168.45 16.2219 167.014 18.9892 165.577 21.698C162.971 26.5909 160.02 31.2756 156.803 35.7883C156.201 35.4649 155.573 35.1655 154.885 34.9049C154.454 34.7423 154.024 34.6047 153.603 34.4808C153.637 34.4137 153.68 34.3432 153.698 34.2503ZM177.5 92.7363C177.732 91.7565 178.024 90.7836 178.394 89.8184C180.665 89.6369 182.902 89.335 185.07 88.8154C186.239 88.535 187.306 88.1333 188.27 87.6171C185.508 89.9982 180.794 90.7767 177.5 92.7363ZM188.192 89.8838C190.368 88.3242 191.917 86.1909 192.27 83.624C192.898 82.3586 193.242 80.8877 193.233 79.2094C193.199 72.6554 190.291 65.4778 188.055 59.4072C187.125 56.873 186.179 54.1883 184.244 52.2262C182.239 50.1926 179.504 49.3935 176.829 48.6434C172.519 47.4391 168.201 46.2881 163.865 45.187C163.117 42.0619 161.646 39.218 159.212 37.1139C159.022 36.947 158.807 36.9152 158.609 36.9556C158.412 36.806 158.222 36.6554 158.016 36.5143C162.678 29.9707 166.867 23.0124 170.119 15.6507C171.435 12.6666 175.298 3.56122 170.36 1.55779C168.416 0.767242 165.328 1.8924 163.599 2.8154C161.31 4.03433 160.295 6.11263 159.384 8.4438C156.184 16.6365 153.938 25.2361 152.33 33.8743C152.313 33.9801 152.321 34.0782 152.338 34.1685C146.024 32.8687 140.493 35.7711 136.33 40.3225C133.637 40.2442 130.928 40.3251 128.192 40.6244C126.248 40.8369 124.321 41.0537 122.403 41.261C118.67 38.6262 114.532 37.9552 110.104 37.1414C107.277 36.6219 104.704 35.8081 102.559 33.7875C100.779 32.1118 99.5677 29.9131 97.6563 28.3595C95.1986 26.3612 92.1973 25.7926 89.4163 27.4614C85.9694 29.5285 83.9521 33.5845 81.2597 36.4447C79.7259 38.0748 78.0571 39.5707 76.2859 40.9333C66.8123 40.3208 57.3422 39.6447 47.8764 39.0649C47.4369 39.0365 47.1565 39.2644 47.0292 39.5707C36.421 41.0064 26.759 47.2954 21.596 56.7853C18.741 62.0343 17.3224 68.4834 12.802 72.6683C11.3276 74.0335 8.87429 75.0244 8.91902 77.3625C8.94397 78.658 9.75259 79.7152 10.7246 80.5806C11.8025 82.7001 13.4524 84.4361 15.6605 85.7186C19.159 87.7513 23.2183 88.5969 26.0708 91.5647C23.3852 97.7135 19.6227 103.356 16.2008 109.159C11.6838 116.818 8.32977 124.882 7.06612 133.735C5.79988 142.61 6.50093 151.601 9.06007 160.186C10.4519 164.857 12.2808 169.45 13.0575 174.285C13.5513 177.364 13.0266 181.364 15.9616 183.386C19.221 185.631 23.1272 183.979 26.3152 182.543C32.1414 179.928 38.1526 179.119 44.4227 180.547C44.8081 180.633 45.1229 180.504 45.3337 180.28C60.3152 187.025 73.719 197.657 90.8287 198.646C102.927 199.343 114.618 196.005 125.689 191.42C129.551 189.829 133.448 188.125 137.414 186.612C137.517 186.973 137.801 187.24 138.291 187.188C149.276 185.975 159.693 189.734 170.368 191.601C177.027 192.762 185.835 192.943 188.88 185.51C190.463 181.631 189.732 177.321 188.485 173.467C186.885 168.538 184.992 163.747 183.642 158.723C180.812 148.163 179.315 137.295 178.3 126.421C177.741 120.329 177.319 114.224 176.915 108.119C176.639 103.843 176.373 99.5698 176.984 95.3883C179.865 92.5264 184.889 92.2494 188.192 89.8838Z" fill="#4D403D"/>
</svg>
